<?xml version="1.0" standalone="no"?>
<!DOCTYPE svg PUBLIC "-//W3C//DTD SVG 20010904//EN"
 "http://www.w3.org/TR/2001/REC-SVG-20010904/DTD/svg10.dtd">
<svg version="1.0" xmlns="http://www.w3.org/2000/svg"
 width="500.000000pt" height="500.000000pt" viewBox="0 0 500.000000 500.000000"
 preserveAspectRatio="xMidYMid meet">

<g transform="translate(0.000000,500.000000) scale(0.100000,-0.100000)"
fill="#000000" stroke="none">
<path d="M0 2500 l0 -2500 2500 0 2500 0 0 2500 0 2500 -2500 0 -2500 0 0
-2500z m2942 1237 c87 -60 127 -136 128 -243 1 -202 -215 -339 -402 -256 -65
29 -104 67 -137 134 -64 127 -28 274 87 359 58 42 84 49 184 46 82 -3 90 -5
140 -40z m-773 -77 c136 -39 201 -195 136 -327 -83 -166 -337 -154 -409 19 -9
21 -16 61 -16 90 1 152 144 260 289 218z m1169 -1074 l-3 -203 -261 201 c-143
111 -262 204 -265 208 -2 3 115 98 261 211 l265 204 3 -209 c1 -115 1 -301 0
-412z m-578 209 l0 -355 -355 0 -355 0 0 355 0 355 355 0 355 0 0 -355z m10
-595 c28 -15 60 -56 70 -88 l9 -32 -45 0 c-37 0 -44 3 -44 19 0 24 -36 51 -68
51 -12 0 -34 -11 -47 -25 -22 -21 -25 -33 -25 -103 0 -65 4 -84 21 -106 33
-42 100 -31 119 20 8 19 17 24 45 24 29 0 35 -4 35 -21 0 -30 -28 -74 -61 -93
-78 -46 -184 -19 -223 59 -26 51 -28 174 -4 220 22 40 59 74 94 85 30 9 98 4
124 -10z m-638 -72 l3 -81 63 81 63 82 51 0 50 0 -34 -42 c-19 -24 -49 -62
-68 -85 l-33 -43 55 -82 c89 -134 87 -128 31 -128 l-48 1 -45 73 -45 74 -22
-21 c-18 -16 -23 -31 -23 -74 l0 -53 -40 0 -40 0 0 190 0 190 40 0 39 0 3 -82z
m348 -108 l0 -190 -45 0 -45 0 0 190 0 190 45 0 45 0 0 -190z m500 108 l0 -82
61 82 61 82 50 0 c39 0 48 -3 41 -12 -5 -7 -35 -45 -67 -85 l-57 -71 66 -101
c36 -56 65 -104 65 -106 0 -3 -20 -5 -45 -5 -44 0 -44 0 -92 75 -45 69 -49 73
-65 58 -13 -12 -18 -31 -18 -75 l0 -58 -45 0 -45 0 0 190 0 190 45 0 45 0 0
-82z m-1117 -501 c17 -43 33 -74 37 -70 4 4 20 41 35 81 21 53 33 72 47 72 16
0 18 -10 18 -105 0 -87 -3 -105 -15 -105 -12 0 -15 15 -16 73 l0 72 -28 -70
c-16 -38 -35 -71 -43 -73 -10 -2 -25 23 -46 75 l-31 78 0 -77 c-1 -62 -4 -78
-16 -78 -12 0 -15 18 -15 106 0 102 1 105 21 102 17 -2 29 -21 52 -81z m447
58 c35 -37 35 -123 0 -160 -30 -31 -88 -35 -114 -6 -39 43 -37 140 4 173 33
26 82 23 110 -7z m230 -60 c31 -89 29 -90 66 28 13 41 23 57 35 57 16 0 14
-11 -17 -97 -19 -53 -37 -100 -40 -105 -15 -24 -34 1 -64 85 -18 50 -35 98
-38 106 -3 8 1 12 13 10 13 -3 26 -28 45 -84z m300 -20 c0 -87 -3 -105 -15
-105 -12 0 -15 18 -15 105 0 87 3 105 15 105 12 0 15 -18 15 -105z m300 90 c0
-11 -12 -15 -50 -15 -49 0 -50 -1 -50 -30 0 -29 2 -30 45 -30 33 0 45 -4 45
-15 0 -11 -12 -15 -45 -15 -45 0 -45 0 -45 -35 l0 -35 55 0 c30 0 55 -4 55
-10 0 -6 -30 -10 -70 -10 l-70 0 0 105 0 105 65 0 c51 0 65 -3 65 -15z m280
-5 c24 -24 26 -40 5 -40 -8 0 -15 4 -15 10 0 15 -35 29 -58 23 -15 -3 -22 -13
-22 -28 0 -18 8 -26 38 -35 68 -23 93 -68 56 -104 -32 -32 -134 -10 -134 30 0
21 23 17 38 -6 21 -34 82 -21 82 17 0 8 -21 23 -47 34 -73 31 -90 62 -53 99
12 12 33 20 55 20 22 0 43 -8 55 -20z"/>
<path d="M2212 1668 c-20 -20 -15 -112 6 -131 44 -40 82 -9 82 67 0 58 -12 76
-50 76 -14 0 -31 -5 -38 -12z"/>
</g>
</svg>
